<svg xmlns="http://www.w3.org/2000/svg" width="168" height="40.32">
  <path fill="#d64123" d="M35.027 20.204v-.045a8.407 8.407 0 0 1 14.317-5.711l-2.188 2.54a5.751 5.751 0 0 0-4-1.778 4.653 4.653 0 0 0-4.535 4.9v.044a4.664 4.664 0 0 0 4.535 4.951 5.629 5.629 0 0 0 4.11-1.844l2.189 2.227A8.232 8.232 0 0 1 35.026 20.2m24.773-8.027h3.172l6.7 15.86h-3.6l-1.429-3.532H58.03l-1.429 3.532h-3.507Zm3.618 9.269-2.076-5.106-2.078 5.106Zm12.532-5.962h-4.758v-3.195h12.957v3.195h-4.759v12.554H75.95Zm16.418-3.307h3.171l6.7 15.86h-3.6l-1.43-3.532h-6.606l-1.429 3.532h-3.507Zm3.617 9.269-2.076-5.106-2.078 5.106Zm10.902-9.157h3.441v12.6h7.795v3.15h-11.236Zm17.557 9.54-6.008-9.54h4.021l3.73 6.323 3.8-6.323h3.909l-6.009 9.472v6.276h-3.441Zm13.134 3.577 8.6-10.079h-8.332v-3.038H150.6v2.633L142 24.997h8.6v3.037h-13.023Zm18.517-13.117h11.794v3.083h-8.378v3.194h7.372v3.084h-7.372v3.307h8.488v3.082h-11.904Z"/>
  <path fill="#ffa400" d="M25.805 15.328H17.7v9.665H8.105v15.328Z"/>
  <path fill="#ee7623" d="M17.7 15.328V0L0 24.991h8.106v-9.663Z"/>
  <path fill="#ca2a18" d="M15.773 20.158a2.87 2.87 0 1 1-2.871-2.89 2.88 2.88 0 0 1 2.871 2.89"/>
</svg>
