<svg width="210px" height="59" viewBox="0 0 256 59" role="presentation" aria-label="Movement Mortgage" xmlns="http://www.w3.org/2000/svg">
    <g>
        <g>
            <path fill="#EDE5D8" d="M76.8819 9.02872H81.6511L86.9374 17.4736L92.2238 9.02872H97.0073V28.966H92.5973V15.964L86.9374 24.5086H86.8225L81.2201 16.078V29.0087H76.9106L76.8819 9.02872Z"></path>
            <path fill="#EDE5D8" d="M102.093 19.0685C102.194 16.3238 103.365 13.7251 105.36 11.819C107.354 9.91278 110.017 8.84769 112.787 8.84769C115.558 8.84769 118.22 9.91278 120.215 11.819C122.21 13.7251 123.381 16.3238 123.482 19.0685V19.0685C123.481 20.4499 123.2 21.8171 122.656 23.0889C122.112 24.3608 121.316 25.5115 120.316 26.4729C119.315 27.4343 118.13 28.1869 116.831 28.6861C115.531 29.1852 114.144 29.4208 112.751 29.3789C111.36 29.4271 109.974 29.1953 108.676 28.6975C107.378 28.1997 106.195 27.4462 105.199 26.4826C104.203 25.519 103.414 24.3652 102.88 23.0909C102.346 21.8166 102.078 20.4483 102.093 19.0685V19.0685ZM118.842 19.0685C118.871 18.2564 118.735 17.4469 118.442 16.6879C118.15 15.9289 117.706 15.236 117.138 14.6502C116.57 14.0645 115.889 13.5978 115.135 13.278C114.382 12.9581 113.571 12.7916 112.751 12.7883C111.938 12.7876 111.133 12.95 110.385 13.2656C109.636 13.5812 108.96 14.0435 108.397 14.6248C107.833 15.2061 107.394 15.8944 107.105 16.6482C106.817 17.4021 106.685 18.206 106.718 19.0116C106.689 19.823 106.825 20.6318 107.118 21.39C107.411 22.1482 107.855 22.8402 108.423 23.4249C108.992 24.0095 109.673 24.4748 110.426 24.7931C111.18 25.1114 111.99 25.2761 112.809 25.2775C113.622 25.2801 114.426 25.1196 115.175 24.8055C115.923 24.4915 116.599 24.0305 117.163 23.4503C117.727 22.8701 118.166 22.1828 118.455 21.4297C118.743 20.6766 118.875 19.8734 118.842 19.0685V19.0685Z"></path>
            <path fill="#EDE5D8" d="M125.551 9.02872H130.435L135.692 23.0845L140.95 9.02872H145.719L137.589 29.1226H133.681L125.551 9.02872Z"></path>
            <path fill="#EDE5D8" d="M149.986 9.02872H165.198V12.9307H154.425V16.9894H163.905V20.8914H154.425V25.0782H165.342V28.9802H149.986V9.02872Z"></path>
            <path fill="#EDE5D8" d="M170.398 9.02872H175.168L180.454 17.4736L185.74 9.02872H190.51V28.966H186.114V15.964L180.454 24.5086H180.339L174.737 16.078V29.0087H170.427L170.398 9.02872Z"></path>
            <path fill="#EDE5D8" d="M196.5 9.02872H211.669V12.9307H200.896V16.9894H210.377V20.8914H200.896V25.0782H211.813V28.9802H196.5V9.02872Z"></path>
            <path fill="#EDE5D8" d="M216.913 9.02872H221.007L230.416 21.3613V9.02872H234.725V28.966H230.962L221.222 16.3058V28.9802H216.913V9.02872Z"></path>
            <path fill="#EDE5D8" d="M245.442 13.0731H239.322V9.02872H256V13.0731H249.952V28.9802H245.513L245.442 13.0731Z"></path>
            <path fill="#9A92AE" d="M96.5764 40.6008H98.3864L101.259 45.1151L104.132 40.6008H105.928V50.1564H104.348V43.3065L101.317 47.8067L98.3002 43.3208V50.1564H96.5764V40.6008Z"></path>
            <path fill="#9A92AE" d="M116.357 45.3999C116.453 44.143 117.024 42.9685 117.957 42.1115C118.889 41.2546 120.113 40.7784 121.385 40.7784C122.656 40.7784 123.881 41.2546 124.813 42.1115C125.745 42.9685 126.317 44.143 126.413 45.3999V45.3999C126.317 46.6567 125.745 47.8312 124.813 48.6882C123.881 49.5452 122.656 50.0214 121.385 50.0214C120.113 50.0214 118.889 49.5452 117.957 48.6882C117.024 47.8312 116.453 46.6567 116.357 45.3999V45.3999ZM124.66 45.3999C124.675 44.9626 124.602 44.5268 124.445 44.118C124.288 43.7093 124.049 43.3359 123.744 43.02C123.439 42.7041 123.073 42.452 122.667 42.2786C122.262 42.1052 121.826 42.0141 121.385 42.0106C120.946 42.0101 120.512 42.0979 120.108 42.2684C119.705 42.439 119.34 42.6889 119.037 43.003C118.733 43.3171 118.497 43.6889 118.343 44.096C118.189 44.503 118.119 44.9369 118.138 45.3714V45.3714C118.123 45.8086 118.196 46.2445 118.353 46.6532C118.511 47.062 118.749 47.4353 119.054 47.7513C119.36 48.0672 119.726 48.3193 120.131 48.4927C120.536 48.666 120.972 48.7572 121.414 48.7607C121.851 48.7592 122.284 48.6701 122.686 48.4987C123.087 48.3272 123.45 48.0771 123.752 47.7632C124.054 47.4492 124.289 47.0781 124.442 46.672C124.596 46.2659 124.665 45.8332 124.646 45.3999H124.66Z"></path>
            <path fill="#9A92AE" d="M136.727 40.6008H141.036C142.051 40.5465 143.046 40.8891 143.809 41.5549C144.075 41.8285 144.283 42.1521 144.422 42.5067C144.56 42.8614 144.625 43.2398 144.613 43.6198C144.627 44.2842 144.407 44.9325 143.99 45.4526C143.573 45.9728 142.985 46.3319 142.329 46.468L144.929 50.0852H142.918L140.548 46.7528H138.407V50.0852H136.727V40.6008ZM140.893 45.3287C142.099 45.3287 142.875 44.7021 142.875 43.7338C142.875 42.7084 142.128 42.153 140.878 42.153H138.407V45.3572L140.893 45.3287Z"></path>
            <path fill="#9A92AE" d="M157.24 42.153H154.195V40.6008H162.009V42.153H158.95V50.1564H157.24V42.153Z"></path>
            <path fill="#9A92AE" d="M171.102 45.3999C171.093 44.7495 171.215 44.1038 171.461 43.5009C171.707 42.8979 172.073 42.35 172.536 41.8894C172.999 41.4288 173.551 41.0649 174.158 40.8191C174.766 40.5733 175.417 40.4506 176.073 40.4583C177.427 40.3937 178.753 40.8591 179.765 41.7542L178.702 43.0216C177.971 42.3448 177 41.9814 176.001 42.0105C175.573 42.027 175.152 42.1271 174.762 42.305C174.373 42.4829 174.023 42.7351 173.732 43.0473C173.441 43.3594 173.215 43.7254 173.067 44.1242C172.919 44.523 172.852 44.9468 172.869 45.3714C172.839 45.8134 172.902 46.2568 173.054 46.6734C173.206 47.0901 173.443 47.4711 173.751 47.7923C174.059 48.1135 174.43 48.3679 174.842 48.5395C175.254 48.7111 175.698 48.7961 176.145 48.7892C176.979 48.8016 177.795 48.5469 178.472 48.0629V46.2686H176.015V44.8445H180.109V48.8604C178.986 49.791 177.565 50.2956 176.101 50.2845C175.443 50.3142 174.786 50.2088 174.17 49.9748C173.555 49.7408 172.995 49.3833 172.526 48.9246C172.056 48.466 171.688 47.9162 171.443 47.3096C171.198 46.7031 171.082 46.0529 171.102 45.3999Z"></path>
            <path fill="#9A92AE" d="M193.929 40.5296H195.494L199.804 50.1564H198.008L197.031 47.8494H192.492L191.501 50.1564H189.777L193.929 40.5296ZM196.342 46.3541L194.675 42.5375L193.023 46.3541H196.342Z"></path>
            <path fill="#9A92AE" d="M208.653 45.4C208.643 44.7496 208.765 44.1039 209.011 43.501C209.257 42.898 209.623 42.3501 210.086 41.8895C210.549 41.4289 211.101 41.065 211.709 40.8192C212.316 40.5734 212.967 40.4507 213.623 40.4584C214.981 40.3977 216.31 40.8623 217.329 41.7543L216.252 43.0217C215.891 42.6846 215.467 42.4217 215.004 42.2482C214.54 42.0746 214.046 41.9939 213.551 42.0106C212.689 42.0476 211.876 42.4222 211.292 43.0522C210.707 43.6823 210.399 44.5163 210.434 45.3715C210.402 45.814 210.463 46.2583 210.614 46.6759C210.765 47.0936 211.002 47.4754 211.311 47.7971C211.619 48.1187 211.991 48.3731 212.404 48.5439C212.817 48.7148 213.262 48.7984 213.709 48.7893C214.543 48.7996 215.359 48.5451 216.036 48.063V46.2687H213.566V44.8446H217.674V48.8605C216.547 49.7942 215.121 50.2991 213.652 50.2846C212.993 50.3143 212.336 50.2089 211.721 49.9749C211.105 49.7409 210.545 49.3833 210.076 48.9247C209.607 48.4661 209.238 47.9163 208.993 47.3097C208.748 46.7032 208.632 46.053 208.653 45.4Z"></path>
            <path fill="#9A92AE" d="M228.117 40.6008H235.3V42.0249H229.841V44.517H234.682V46.0123H229.841V48.5757H235.372V50.0852H228.189L228.117 40.6008Z"></path>
        </g>
        <g>
            <path fill="#C0392B" d="M16.6491 19.5812H11.9086V39.433H16.2182V26.5592L19.1055 30.8884L21.4327 27.2001L16.6491 19.5812Z"></path>
            <path fill="#C0392B" d="M37.6077 27.9691H37.5934L36.7027 26.545L36.3293 25.9469V25.9326L32.3358 19.5812H31.9335H27.5809H27.1787L23.1278 26.0465L23.0559 26.1747L21.9211 27.9691L19.6083 31.629L21.8062 34.9471H21.9211L27.5522 26.4738V37.3253H31.9335V26.5877L37.4785 34.9471H37.5934L39.8631 31.5435L37.6077 27.9691Z"></path>
            <path fill="#C0392B" d="M42.8654 19.5812L38.0818 27.2001L40.3515 30.803L43.2389 26.4738V39.433H47.6058V19.5812H42.8654Z"></path>
            <path fill="#C0392B" d="M29.7644 3.30385C24.5361 3.30104 19.4244 4.83544 15.0758 7.71297C10.7273 10.5905 7.3372 14.6819 5.33444 19.4697C3.33169 24.2574 2.8062 29.5265 3.82445 34.6104C4.8427 39.6942 7.35895 44.3645 11.0549 48.0305C14.7509 51.6965 19.4606 54.1936 24.5882 55.2058C29.7158 56.218 35.0311 55.6999 39.8617 53.7171C44.6923 51.7342 48.8213 48.3757 51.7262 44.0663C54.6312 39.7569 56.1818 34.6902 56.1818 29.5071C56.1742 22.5623 53.389 15.904 48.4368 10.992C43.4846 6.07993 36.7697 3.31516 29.7644 3.30385V3.30385ZM29.7644 59C23.8764 59.0028 18.1197 57.2743 13.2228 54.0331C8.32585 50.7919 4.50864 46.1836 2.25406 40.7913C-0.000518634 35.399 -0.591164 29.4649 0.556845 23.7398C1.70485 18.0146 4.53993 12.7557 8.70343 8.62817C12.8669 4.50066 18.1718 1.69009 23.9468 0.552008C29.7219 -0.586077 35.7077 -0.000537404 41.1471 2.23455C46.5864 4.46964 51.2348 8.25385 54.5043 13.1085C57.7737 17.9631 59.5173 23.6699 59.5145 29.5071C59.5069 37.3268 56.3701 44.824 50.7925 50.3534C45.2149 55.8827 37.6523 58.9924 29.7644 59"></path>
        </g>
    </g>
</svg>