<?xml version="1.0" encoding="UTF-8" standalone="no"?>
<!DOCTYPE svg PUBLIC "-//W3C//DTD SVG 1.1//EN" "http://www.w3.org/Graphics/SVG/1.1/DTD/svg11.dtd">
<svg width="100%" height="100%" viewBox="0 0 388 412" version="1.1" xmlns="http://www.w3.org/2000/svg" xmlns:xlink="http://www.w3.org/1999/xlink" xml:space="preserve" xmlns:serif="http://www.serif.com/" style="fill-rule:evenodd;clip-rule:evenodd;stroke-linejoin:bevel;stroke-miterlimit:1.5;">
    <g transform="matrix(1,0,0,1,-937.841071,-1410.345194)">
        <g transform="matrix(1,0,0,1.002727,53,394.166122)">
            <g transform="matrix(0.462203,0.462203,-0.468657,0.468657,1141.851731,116.649514)">
                <path d="M932.026,1029.754L932,1432L1262,1432" style="fill:none;stroke:rgb(20,18,22);stroke-width:50.5px;"/>
            </g>
        </g>
        <g transform="matrix(1,0,0,1.002727,53,394.166122)">
            <g transform="matrix(-0.462834,-0.461575,0.468017,-0.469293,1016.439175,2320.96219)">
                <path d="M932,1029.803L932,1432L1262,1432" style="fill:none;stroke:rgb(20,18,22);stroke-width:50.5px;"/>
            </g>
        </g>
        <g transform="matrix(1,0,0,1.002727,53,394.166122)">
            <g transform="matrix(0.16152,0.161534,-0.163776,0.16379,1067.497858,833.492427)">
                <path d="M932.026,1029.754L932,1432L1337.05,1431.984" style="fill:none;stroke:rgb(59,148,148);stroke-width:117.41px;"/>
            </g>
        </g>
        <g transform="matrix(1,0,0,1.002727,53,394.166122)">
            <g transform="matrix(-0.161741,-0.161314,0.163552,-0.164012,1090.043537,1602.93859)">
                <path d="M932.016,1029.788L932,1432L1337.136,1432" style="fill:none;stroke:rgb(59,148,148);stroke-width:117.41px;"/>
            </g>
        </g>
    </g>
</svg>
